<svg width="14" height="14" viewBox="0 0 14 14" fill="none" xmlns="http://www.w3.org/2000/svg">
<path d="M11.996 9.12261L10.1579 8.91275C9.71644 8.86209 9.28224 9.01406 8.97105 9.32524L7.63948 10.6568C5.59147 9.61472 3.91254 7.94301 2.87044 5.88775L4.20925 4.54894C4.52043 4.23775 4.6724 3.80355 4.62174 3.3621L4.41188 1.53842C4.32504 0.807499 3.70991 0.2575 2.97176 0.2575H1.71979C0.902035 0.2575 0.221776 0.937761 0.272434 1.75552C0.655984 7.93577 5.59871 12.8713 11.7717 13.2548C12.5894 13.3055 13.2697 12.6252 13.2697 11.8075V10.5555C13.2769 9.82459 12.7269 9.20946 11.996 9.12261Z" fill="#212121"/>
</svg>
