<svg xmlns="http://www.w3.org/2000/svg"  viewBox="0 0 48 48" width="144px" height="144px"><path fill="#42a5f5" d="M40.084,32.613c-0.848,1.835-1.254,2.655-2.342,4.274c-1.521,2.264-3.67,5.089-6.326,5.109	c-2.361,0.018-2.971-1.507-6.176-1.482c-3.204,0.016-3.872,1.51-6.237,1.484c-2.654-0.022-4.688-2.568-6.21-4.826	c-4.259-6.34-4.707-13.768-2.076-17.721c1.861-2.803,4.807-4.449,7.572-4.449c2.817,0,4.588,1.514,6.916,1.514	c2.262,0,3.638-1.517,6.896-1.517c2.464,0,5.07,1.313,6.931,3.575C32.942,21.836,33.931,30.337,40.084,32.613z"/><path fill="#42a5f5" d="M30.046,12.072c1.269-1.577,2.232-3.804,1.882-6.072c-2.069,0.138-4.491,1.418-5.905,3.075	c-1.282,1.51-2.345,3.752-1.931,5.922C26.351,15.066,28.689,13.764,30.046,12.072z"/><path fill="#1e88e5" d="M34.997,24.479c-2.917,1.742-6.582,2.915-11.049,2.408c-6.502-0.737-11.579,0.85-14.525,2.179	c0.507,2.673,1.607,5.483,3.371,8.107c1.521,2.258,3.556,4.804,6.21,4.826c2.365,0.025,3.033-1.469,6.237-1.484	c3.205-0.024,3.814,1.5,6.176,1.482c2.656-0.021,4.805-2.846,6.326-5.109c1.088-1.619,1.494-2.439,2.342-4.274	C36.466,31.275,34.648,27.789,34.997,24.479z"/></svg>