<svg xmlns="http://www.w3.org/2000/svg"  viewBox="0 0 50 50" width="50px" height="50px"><path d="M 14 4 C 8.4886661 4 4 8.4886661 4 14 L 4 36 C 4 41.511334 8.4886661 46 14 46 L 36 46 C 41.511334 46 46 41.511334 46 36 L 46 14 C 46 8.4886661 41.511334 4 36 4 L 14 4 z M 14 6 L 36 6 C 40.430666 6 44 9.5693339 44 14 L 44 36 C 44 40.430666 40.430666 44 36 44 L 14 44 C 9.5693339 44 6 40.430666 6 36 L 6 14 C 6 9.5693339 9.5693339 6 14 6 z M 25 11 C 16.80473 11 10 16.742448 10 24 C 10 28.462356 12.665279 32.296609 16.542969 34.621094 C 15.986153 35.625655 15.305135 36.594755 14.445312 37.167969 A 1.0001 1.0001 0 0 0 15 39 C 16.622929 39 18.973687 38.12868 21.400391 36.564453 C 22.555761 36.814771 23.74752 37 25 37 C 33.19527 37 40 31.257552 40 24 C 40 16.742448 33.19527 11 25 11 z M 25 13 C 32.26873 13 38 18.003552 38 24 C 38 29.996448 32.26873 35 25 35 C 23.7686 35 22.579972 34.844344 21.443359 34.570312 A 1.0001 1.0001 0 0 0 20.650391 34.712891 C 19.752326 35.31876 18.862316 35.701792 18.009766 36.064453 C 18.277734 35.619285 18.578349 35.174679 18.78125 34.738281 A 1.0001 1.0001 0 0 0 18.328125 33.425781 C 14.495729 31.476489 12 27.97464 12 24 C 12 18.003552 17.73127 13 25 13 z"/></svg>