<svg xmlns="http://www.w3.org/2000/svg"  viewBox="0 0 100 100" width="100px" height="100px"><path fill="#c7ede6" d="M87.215,56.71A15.473,15.473,0,0,0,79,35.022V35a20.988,20.988,0,0,0-41.313-5.243,14.975,14.975,0,0,0-19.577,12.5A11.5,11.5,0,0,0,20.5,65c.177,0,.352-.012.526-.022,0,.175-.026.346-.026.522A20.493,20.493,0,0,0,57.434,78.386a11.975,11.975,0,0,0,19.232-2.9A10.992,10.992,0,0,0,87.215,56.71Z"/><path fill="#fdfcef" d="M76.5,37.5V38h3v-.5H85a4.488,4.488,0,0,0,.445-8.955A4.451,4.451,0,0,0,85.5,28a4.484,4.484,0,0,0-8.027-2.764,4.989,4.989,0,1,0-9.786,1.546,3.473,3.473,0,0,0-6.142,1.773A4.451,4.451,0,0,0,61,28.5a4.5,4.5,0,0,0,0,9H76.5Z"/><path fill="#472b29" d="M72.5,20A5.506,5.506,0,0,0,67,25.5v.047A3.933,3.933,0,0,0,65,25a4,4,0,0,0-3.858,3c-.047,0-.094,0-.142,0a5,5,0,0,0,0,10H76.5a.5.5,0,0,0,0-1H61a4,4,0,0,1,0-8,2.587,2.587,0,0,1,.343.032l.141.019a.44.44,0,0,0,.062,0,.5.5,0,0,0,.495-.437A2.973,2.973,0,0,1,67.3,27.1a.5.5,0,0,0,.386.182.493.493,0,0,0,.229-.056.5.5,0,0,0,.254-.573A4.412,4.412,0,0,1,68,25.5a4.49,4.49,0,0,1,8.974-.237.5.5,0,0,0,.349.449.47.47,0,0,0,.152.025.5.5,0,0,0,.392-.193A3.984,3.984,0,0,1,85,28a2.587,2.587,0,0,1-.032.343l-.019.141a.5.5,0,0,0,.447.558A3.988,3.988,0,0,1,85,37H79.5a.5.5,0,0,0,0,1H85a4.988,4.988,0,0,0,1-9.877q0-.061,0-.123a5.006,5.006,0,0,0-5-5,4.932,4.932,0,0,0-3.183,1.164A5.486,5.486,0,0,0,72.5,20Z"/><path fill="#472b29" d="M71,27a3.009,3.009,0,0,0-2.913,2.341A2.344,2.344,0,0,0,66.875,29a2.377,2.377,0,0,0-2.353,2.068A2.63,2.63,0,0,0,63.937,31a2.94,2.94,0,0,0-2.917,2.732.251.251,0,0,0,.231.268h.019a.251.251,0,0,0,.249-.232,2.39,2.39,0,0,1,3.156-2.141.224.224,0,0,0,.067.011A.261.261,0,0,0,65,31.375a1.865,1.865,0,0,1,3.106-1.4.253.253,0,0,0,.166.063.249.249,0,0,0,.093-.019.252.252,0,0,0,.156-.212A2.506,2.506,0,0,1,71,27.5a2.464,2.464,0,0,1,.682.107.242.242,0,0,0,.07.01.25.25,0,0,0,.066-.491A2.929,2.929,0,0,0,71,27Z"/><path fill="#472b29" d="M84.883,28.5a3,3,0,0,0-2.873,2.182.249.249,0,0,0,.172.308.233.233,0,0,0,.068.01.25.25,0,0,0,.24-.182A2.5,2.5,0,0,1,84.883,29a2.558,2.558,0,0,1,.342.029.211.211,0,0,0,.035,0,.25.25,0,0,0,.032-.5,3.063,3.063,0,0,0-.409-.034Z"/><path fill="#fff" d="M15.5,51H5.5a.5.5,0,0,1,0-1h10a.5.5,0,0,1,0,1Z"/><path fill="#fff" d="M18.5,51h-1a.5.5,0,0,1,0-1h1a.5.5,0,0,1,0,1Z"/><path fill="#fff" d="M23.491,53H14.5a.5.5,0,0,1,0-1h8.991a.5.5,0,0,1,0,1Z"/><path fill="#fff" d="M12.5,53h-1a.5.5,0,0,1,0-1h1a.5.5,0,0,1,0,1Z"/><path fill="#fff" d="M9.5,53h-2a.5.5,0,0,1,0-1h2a.5.5,0,0,1,0,1Z"/><path fill="#fff" d="M15.5,55h-2a.5.5,0,0,1,0-1h2a.5.5,0,0,1,0,1Z"/><path fill="#fff" d="M18.5,46h-1a.5.5,0,0,0,0,1h1a.5.5,0,0,0,0-1Z"/><path fill="#fff" d="M18.5,48h-5a.5.5,0,0,0,0,1h5a.5.5,0,0,0,0-1Z"/><path fill="#fff" d="M23.5,50h-3a.5.5,0,0,0,0,1h3a.5.5,0,0,0,0-1Z"/><path fill="#fff" d="M86.5,63h-10a.5.5,0,0,1,0-1h10a.5.5,0,0,1,0,1Z"/><path fill="#fff" d="M90.5,63h-2a.5.5,0,0,1,0-1h2a.5.5,0,0,1,0,1Z"/><path fill="#fff" d="M95.5,65h-10a.5.5,0,0,1,0-1h10a.5.5,0,0,1,0,1Z"/><path fill="#fff" d="M83.5,65h-1a.5.5,0,0,1,0-1h1a.5.5,0,0,1,0,1Z"/><path fill="#fff" d="M80.47,65H78.5a.5.5,0,0,1,0-1h1.97a.5.5,0,0,1,0,1Z"/><path fill="#fff" d="M89.5,61h-5a.5.5,0,0,1,0-1h5a.5.5,0,0,1,0,1Z"/><path fill="#fff" d="M86.5,67h-2a.5.5,0,0,1,0-1h2a.5.5,0,0,1,0,1Z"/><path fill="#00a5a5" d="M52,73A23,23,0,1,1,75,50,23.026,23.026,0,0,1,52,73Z"/><path fill="#eeecd9" d="M49.69,73.223a23.262,23.262,0,0,1-10.348-3.67c-2.617-1.708-3.208-2.41-3.208-3.81,0-2.814,3.093-7.741,8.386-13.359,3.006-3.19,7.193-6.93,7.646-6.829.88.2,7.917,7.062,10.552,10.293,4.166,5.11,6.081,9.294,5.108,11.16-.74,1.418-5.329,4.189-8.7,5.254a25.582,25.582,0,0,1-9.435.961ZM32.6,62.818a24.186,24.186,0,0,1-3.8-11.371c-.175-1.568-.112-2.465.4-5.685A23.29,23.29,0,0,1,34.86,34.251c1.17-1.217,1.274-1.246,2.7-.766,1.731.583,3.579,1.86,6.446,4.452l1.673,1.513-.914,1.122c-4.24,5.209-8.716,12.592-10.4,17.161-.917,2.483-1.287,4.976-.892,6.014C33.736,64.447,33.492,64.186,32.6,62.818Zm38.169.567a11.313,11.313,0,0,0-.694-4.917C68.7,54.261,64.087,46.435,59.854,41.114l-1.333-1.675,1.442-1.323a30.331,30.331,0,0,1,4.6-3.642,8.853,8.853,0,0,1,3.386-1.308c.422,0,1.905,1.54,3.1,3.22a24.4,24.4,0,0,1,3.91,9.04,30.08,30.08,0,0,1,.072,8.78,27.688,27.688,0,0,1-1.748,5.518A29.576,29.576,0,0,1,70.9,63.817c-.293.372-.293.371-.128-.432ZM50.075,32.372a28.961,28.961,0,0,0-6.631-2.343,12.168,12.168,0,0,0-2.211-.124,5.5,5.5,0,0,1-.8.007c-.372-.054.1-.3,1.691-1.051a22.635,22.635,0,0,1,5.433-1.809,27.985,27.985,0,0,1,9.013-.012,25.158,25.158,0,0,1,7.045,2.622l.489.3-1.122-.057c-2.23-.113-5.479.788-8.967,2.486a18.362,18.362,0,0,1-2.034.908C51.914,33.288,51.056,32.87,50.075,32.372Z"/><g data-name="g4146"><path fill="#472b29" d="M51.805,74.02c-.748,0-1.48-.033-2.182-.1h0a24.107,24.107,0,0,1-10.664-3.781c-2.645-1.726-3.525-2.6-3.525-4.4,0-3.01,3.126-8.054,8.577-13.839.068-.073,6.961-7.327,8.308-7.031,1.278.285,8.724,7.813,10.941,10.533,4.421,5.423,6.311,9.769,5.187,11.926-.9,1.724-5.844,4.566-9.111,5.6A26.049,26.049,0,0,1,51.805,74.02Zm.325-27.7a60.075,60.075,0,0,0-7.1,6.542c-5.132,5.447-8.195,10.261-8.195,12.879,0,.991.236,1.492,2.89,3.223a22.673,22.673,0,0,0,10.033,3.56h0a25.037,25.037,0,0,0,9.157-.932c3.4-1.074,7.693-3.762,8.292-4.91.619-1.188-.327-4.623-5.031-10.393A88.184,88.184,0,0,0,52.13,46.322ZM33.522,64.845c-.437,0-.78-.527-1.509-1.645l.6-.394a15.925,15.925,0,0,1,1.089-5.316c1.711-4.634,6.232-12.1,10.517-17.36l.493-.607-1.179-1.067c-2.779-2.512-4.576-3.76-6.2-4.308-1.061-.357-1.062-.358-1.971.588l-1.01-.97c1.354-1.408,1.738-1.515,3.428-.945,1.821.614,3.76,1.946,6.693,4.6l1.672,1.513a.7.7,0,0,1,.074.961l-.913,1.122c-4.2,5.16-8.625,12.452-10.29,16.961-.924,2.5-1.18,4.772-.894,5.523.1.257.357.94-.247,1.247A.787.787,0,0,1,33.522,64.845Zm37.947-.86L70.1,63.7a12.731,12.731,0,0,0-.688-5.018c-1.364-4.16-5.9-11.847-10.1-17.136l-1.332-1.675a.7.7,0,0,1,.074-.951L59.489,37.6a30.942,30.942,0,0,1,4.7-3.721,9.393,9.393,0,0,1,3.756-1.413v1.4a8.465,8.465,0,0,0-3.016,1.2,29.664,29.664,0,0,0-4.5,3.563l-.962.883.927,1.164c4.293,5.4,8.931,13.28,10.338,17.572A13.909,13.909,0,0,1,71.469,63.985ZM51.983,34a.65.65,0,0,1-.128-.015,12.561,12.561,0,0,1-2.1-.993,30.091,30.091,0,0,0-6.446-2.28,11.525,11.525,0,0,0-2.882-.123l-.2.011-.071-1.4.193-.011a12.8,12.8,0,0,1,3.226.146,31.344,31.344,0,0,1,6.815,2.407c.748.379,1.324.662,1.617.8.3-.128.919-.407,1.7-.787,3.579-1.741,6.977-2.672,9.309-2.555l1.122.056-.071,1.4-1.121-.057c-2.109-.1-5.252.775-8.626,2.416A8.5,8.5,0,0,1,51.983,34Z" data-name="path4148"/><path fill="#472b29" d="M71.828,55.019a.225.225,0,0,1-.062-.008.249.249,0,0,1-.18-.3c.1-.394.189-.772.257-1.122a27.035,27.035,0,0,0-.062-7.489q-.11-.519-.243-1.033a.25.25,0,1,1,.483-.126q.136.524.25,1.056a27.771,27.771,0,0,1,.063,7.688c-.07.358-.16.748-.264,1.151A.251.251,0,0,1,71.828,55.019Zm-39.463-.062a.25.25,0,0,1-.244-.194,32.2,32.2,0,0,1-.592-3.621.25.25,0,0,1,.221-.276.247.247,0,0,1,.276.22,31.893,31.893,0,0,0,.582,3.565.25.25,0,0,1-.188.3A.257.257,0,0,1,32.365,54.957Zm-.474-6.707-.035,0a.25.25,0,0,1-.213-.282c.066-.485.154-1.064.267-1.773a.25.25,0,1,1,.494.078c-.112.706-.2,1.281-.266,1.763A.25.25,0,0,1,31.891,48.25Zm.794-4a.242.242,0,0,1-.074-.011.25.25,0,0,1-.165-.313,20.564,20.564,0,0,1,4.286-7.652.25.25,0,1,1,.365.342,20.343,20.343,0,0,0-4.173,7.458A.25.25,0,0,1,32.685,44.25Zm38.469-1a.252.252,0,0,1-.235-.164,20.958,20.958,0,0,0-1.351-2.965.25.25,0,0,1,.438-.242,21.455,21.455,0,0,1,1.383,3.035.249.249,0,0,1-.149.321A.255.255,0,0,1,71.154,43.25Zm-2.546-4.873a.252.252,0,0,1-.2-.105,17.822,17.822,0,0,0-1.328-1.65.25.25,0,0,1,.369-.337,18.465,18.465,0,0,1,1.367,1.7.25.25,0,0,1-.2.4Z"/></g><path fill="#472b29" d="M52.033,27.4A22.6,22.6,0,1,1,29.433,50a22.625,22.625,0,0,1,22.6-22.6m0-1.4a24,24,0,1,0,24,24,24.027,24.027,0,0,0-24-24Z"/><path fill="#fdfcef" d="M36.5,73.5H40a3.491,3.491,0,0,0,.445-6.955,3.482,3.482,0,0,0-6.035-2.88,4,4,0,0,0-7.91.835,3.951,3.951,0,0,0,.056.558,2.48,2.48,0,0,0-4.011,1.5A3.494,3.494,0,1,0,22,73.5h7.5V74h7Z"/><path fill="#472b29" d="M38.25,69a.25.25,0,0,1-.25-.25,2.221,2.221,0,0,1,2.218-2.218,6.364,6.364,0,0,1,1.244.135.25.25,0,0,1-.13.483,5.038,5.038,0,0,0-1.113-.118A1.721,1.721,0,0,0,38.5,68.75.25.25,0,0,1,38.25,69Z"/><circle cx="31.5" cy="73.5" r=".5" fill="#472b29"/><path fill="#472b29" d="M40,74H36.5a.5.5,0,0,1,0-1H40a2.991,2.991,0,0,0,.382-5.959.5.5,0,0,1-.431-.573A2.931,2.931,0,0,0,37,63a2.958,2.958,0,0,0-2.219,1,.5.5,0,0,1-.861-.231A3.5,3.5,0,0,0,27,64.5a2.887,2.887,0,0,0,.041.418.548.548,0,0,1-.242.54.492.492,0,0,1-.556-.01A1.97,1.97,0,0,0,25,65a1.994,1.994,0,0,0-1.963,1.644.5.5,0,0,1-.569.405A2.994,2.994,0,1,0,22,73h7.5a.5.5,0,0,1,0,1H22a4,4,0,0,1,0-8c.059,0,.116,0,.174.006A2.993,2.993,0,0,1,25,64a2.907,2.907,0,0,1,1.011.18,4.5,4.5,0,0,1,8.642-1.406A3.986,3.986,0,0,1,41,66c0,.048,0,.095,0,.142A3.991,3.991,0,0,1,40,74Z"/><path fill="#472b29" d="M34.5,73h-1a.5.5,0,0,0,0,1h1a.5.5,0,0,0,0-1Z"/><path fill="#472b29" d="M51.791,70.569a.25.25,0,0,1,0-.5,23.612,23.612,0,0,0,4.164-.374.256.256,0,0,1,.291.2.25.25,0,0,1-.2.292A24.243,24.243,0,0,1,51.791,70.569Zm-1.814-.082h-.025a19.23,19.23,0,0,1-3.015-.541.25.25,0,0,1-.179-.3.247.247,0,0,1,.3-.179A18.605,18.605,0,0,0,50,69.988a.25.25,0,0,1-.023.5Zm8.245-.836a.25.25,0,0,1-.076-.488A22.1,22.1,0,0,0,64.9,65.492a.25.25,0,0,1,.344.362A22.668,22.668,0,0,1,58.3,69.639.245.245,0,0,1,58.222,69.651Z"/></svg>