<svg xmlns="http://www.w3.org/2000/svg" width="270" height="120" fill="none"><rect width="270" height="120" fill="#F5F4FA" rx="4"/><path fill="#212121" d="m167 73-18-18 2-10h2a5 5 0 1 0-5-3l-11 1-17-18h-2l-3 4v1l1 2a33 33 0 0 0 6 39v15h-14c-3 0-6 2-6 6v2l2 1h53l1-1v-2c0-4-2-6-5-6h-14v-6a33 33 0 0 0 22-4l1 2 1 1 1-1 3-3v-2Zm-16-34a2 2 0 1 1 2 4 2 2 0 0 1-2-4Zm-3 7-1 7-3-3 4-4Zm-1-2-4 5-4-4 8-1Zm6 44c1 0 3 2 3 4v1h-51v-1c0-2 1-4 3-4h45Zm-17-5v3h-11v-3h11Zm-11-2v-9c0-3 2-5 5-5 4 0 6 2 6 5v9h-11Zm14-4v-5c0-4-4-7-9-7-3 0-5 1-7 4-9-10-11-24-5-35l41 41c-6 3-14 4-20 2Zm24-1-1-2-43-43-2-2 2-1 17 17 29 29-2 2Z"/><path fill="#2196F3" d="M130 69a3 3 0 1 0 0 7 4 4 0 0 0 0-7Zm1 5a1 1 0 1 1-1-2 1 1 0 0 1 1 2Z"/></svg>