<!-- Generated by IcoMoon.io -->
<svg version="1.1" xmlns="http://www.w3.org/2000/svg" width="65" height="32" viewBox="0 0 65 32">
<path fill="#afb1b8" d="M10.016 9.983h-0.002c-1.827 0-3.308 1.316-3.308 2.94v0.002c0 1.624 1.481 2.94 3.308 2.94h0.002c1.827 0 3.308-1.316 3.308-2.94v-0.002c0-1.624-1.481-2.94-3.308-2.94z"></path>
<path fill="#afb1b8" d="M34.434 9.043c-0.005-2.255-1.015-4.417-2.81-6.012s-4.226-2.493-6.764-2.498v0c-2.538 0.004-4.972 0.902-6.767 2.497s-2.806 3.757-2.811 6.013v12.436c0 0 19.149-1.895 19.151-12.434v-0.002z"></path>
<path fill="#afb1b8" d="M0 25.562c0.005 1.569 0.708 3.073 1.956 4.183s2.94 1.735 4.706 1.74c1.765-0.005 3.457-0.63 4.705-1.739s1.952-2.613 1.957-4.182v-8.654c0 0-13.325 1.32-13.325 8.652zM6.662 27.112c-0.345 0-0.682-0.091-0.969-0.261s-0.511-0.413-0.643-0.696c-0.132-0.283-0.167-0.595-0.099-0.896s0.233-0.577 0.477-0.794 0.555-0.364 0.893-0.424c0.338-0.060 0.689-0.029 1.008 0.088s0.591 0.316 0.783 0.571c0.192 0.255 0.294 0.555 0.294 0.861 0.001 0.204-0.044 0.406-0.131 0.595s-0.216 0.36-0.378 0.505c-0.162 0.145-0.355 0.259-0.567 0.338s-0.439 0.119-0.669 0.119v-0.006z"></path>
<path fill="#afb1b8" d="M18.842 24.336v3.25h-0.67v-3.25h0.67zM20.137 25.725v0.522h-1.478v-0.522h1.478zM20.293 24.336v0.525h-1.634v-0.525h1.634zM23.351 25.885v0.154c0 0.247-0.033 0.469-0.1 0.665s-0.161 0.364-0.284 0.502c-0.122 0.137-0.268 0.242-0.438 0.315-0.168 0.073-0.355 0.109-0.56 0.109-0.204 0-0.391-0.036-0.56-0.109-0.168-0.073-0.314-0.178-0.438-0.315-0.123-0.138-0.22-0.306-0.288-0.502-0.067-0.196-0.101-0.418-0.101-0.665v-0.154c0-0.249 0.034-0.47 0.101-0.665 0.067-0.196 0.161-0.364 0.283-0.502 0.123-0.138 0.269-0.244 0.438-0.317 0.17-0.073 0.356-0.109 0.56-0.109 0.205 0 0.392 0.036 0.56 0.109 0.17 0.073 0.316 0.179 0.438 0.317 0.123 0.138 0.219 0.306 0.286 0.502 0.068 0.195 0.103 0.417 0.103 0.665zM22.675 26.039v-0.158c0-0.173-0.016-0.324-0.047-0.455s-0.077-0.241-0.138-0.33-0.135-0.156-0.223-0.201c-0.088-0.046-0.188-0.069-0.301-0.069s-0.214 0.023-0.301 0.069c-0.086 0.045-0.16 0.112-0.221 0.201-0.059 0.089-0.105 0.199-0.136 0.33s-0.047 0.283-0.047 0.455v0.158c0 0.171 0.016 0.323 0.047 0.455 0.031 0.131 0.077 0.242 0.138 0.333 0.061 0.089 0.135 0.157 0.223 0.203s0.188 0.069 0.301 0.069c0.113 0 0.213-0.023 0.301-0.069s0.161-0.114 0.221-0.203c0.059-0.091 0.105-0.202 0.136-0.333 0.031-0.132 0.047-0.284 0.047-0.455zM25.525 26.736c0-0.058-0.009-0.11-0.027-0.156-0.016-0.048-0.048-0.091-0.094-0.129-0.046-0.040-0.111-0.080-0.194-0.118s-0.191-0.079-0.324-0.121c-0.147-0.048-0.287-0.101-0.42-0.161-0.131-0.059-0.247-0.129-0.348-0.208-0.1-0.080-0.178-0.173-0.237-0.279-0.057-0.106-0.085-0.228-0.085-0.368 0-0.135 0.030-0.258 0.089-0.368 0.059-0.112 0.143-0.207 0.25-0.286 0.107-0.080 0.234-0.142 0.379-0.185 0.147-0.043 0.309-0.065 0.484-0.065 0.24 0 0.449 0.043 0.627 0.129s0.317 0.205 0.415 0.355c0.1 0.15 0.15 0.322 0.15 0.516h-0.665c0-0.095-0.020-0.179-0.060-0.25-0.039-0.073-0.098-0.13-0.179-0.172-0.079-0.042-0.179-0.063-0.299-0.063-0.116 0-0.213 0.018-0.29 0.054-0.077 0.034-0.135 0.081-0.174 0.141-0.039 0.058-0.058 0.123-0.058 0.196 0 0.055 0.013 0.105 0.040 0.15 0.028 0.045 0.070 0.086 0.125 0.125s0.123 0.075 0.203 0.109c0.080 0.034 0.173 0.068 0.279 0.101 0.177 0.054 0.333 0.114 0.466 0.181 0.135 0.067 0.249 0.142 0.339 0.225s0.159 0.178 0.205 0.284c0.046 0.106 0.069 0.225 0.069 0.359 0 0.141-0.028 0.268-0.083 0.38s-0.135 0.206-0.239 0.284c-0.104 0.077-0.228 0.136-0.373 0.176s-0.306 0.060-0.484 0.060c-0.161 0-0.319-0.021-0.475-0.062-0.156-0.043-0.298-0.108-0.426-0.194-0.126-0.086-0.228-0.196-0.304-0.33s-0.114-0.292-0.114-0.475h0.672c0 0.101 0.016 0.187 0.047 0.257s0.075 0.126 0.132 0.17c0.058 0.043 0.127 0.074 0.205 0.094 0.080 0.019 0.168 0.029 0.263 0.029 0.116 0 0.211-0.016 0.286-0.049 0.076-0.033 0.132-0.078 0.167-0.136 0.037-0.058 0.056-0.123 0.056-0.196zM28.103 24.336v3.25h-0.667v-3.25h0.667zM29.103 24.336v0.525h-2.652v-0.525h2.652zM31.666 27.064v0.522h-1.73v-0.522h1.73zM30.154 24.336v3.25h-0.67v-3.25h0.67zM31.44 25.66v0.509h-1.504v-0.509h1.504zM31.663 24.336v0.525h-1.728v-0.525h1.728zM32.056 24.336h1.212c0.249 0 0.462 0.037 0.641 0.112 0.18 0.074 0.318 0.185 0.415 0.33s0.145 0.325 0.145 0.538c0 0.174-0.030 0.324-0.089 0.449-0.058 0.123-0.141 0.227-0.248 0.31-0.106 0.082-0.23 0.147-0.373 0.196l-0.212 0.112h-1.054l-0.004-0.522h0.783c0.118 0 0.215-0.021 0.292-0.063s0.135-0.1 0.174-0.174c0.040-0.074 0.060-0.161 0.060-0.259 0-0.104-0.019-0.194-0.058-0.27s-0.097-0.134-0.176-0.174c-0.079-0.040-0.178-0.060-0.297-0.060h-0.542v2.725h-0.67v-3.25zM33.873 27.586l-0.741-1.449 0.708-0.004 0.75 1.422v0.031h-0.717zM37.389 26.428h-0.828v-0.522h0.828c0.128 0 0.232-0.021 0.313-0.063 0.080-0.043 0.139-0.103 0.176-0.179s0.056-0.161 0.056-0.257c0-0.097-0.019-0.187-0.056-0.27s-0.096-0.15-0.176-0.201-0.185-0.076-0.313-0.076h-0.596v2.725h-0.67v-3.25h1.266c0.254 0 0.473 0.046 0.654 0.138 0.183 0.091 0.323 0.217 0.42 0.377s0.145 0.345 0.145 0.551c0 0.21-0.048 0.391-0.145 0.545s-0.237 0.272-0.42 0.355c-0.181 0.083-0.4 0.125-0.654 0.125zM41.251 27.064v0.522h-1.73v-0.522h1.73zM39.739 24.336v3.25h-0.67v-3.25h0.67zM41.025 25.66v0.509h-1.504v-0.509h1.504zM41.248 24.336v0.525h-1.728v-0.525h1.728zM43.139 24.336v3.25h-0.667v-3.25h0.667zM44.139 24.336v0.525h-2.652v-0.525h2.652zM46.701 27.064v0.522h-1.73v-0.522h1.73zM45.19 24.336v3.25h-0.67v-3.25h0.67zM46.476 25.66v0.509h-1.504v-0.509h1.504zM46.699 24.336v0.525h-1.728v-0.525h1.728zM47.092 24.336h1.212c0.249 0 0.462 0.037 0.641 0.112 0.18 0.074 0.318 0.185 0.415 0.33s0.145 0.325 0.145 0.538c0 0.174-0.030 0.324-0.089 0.449-0.058 0.123-0.141 0.227-0.248 0.31-0.106 0.082-0.23 0.147-0.373 0.196l-0.212 0.112h-1.054l-0.005-0.522h0.784c0.118 0 0.215-0.021 0.292-0.063s0.135-0.1 0.174-0.174c0.040-0.074 0.060-0.161 0.060-0.259 0-0.104-0.019-0.194-0.058-0.27s-0.097-0.134-0.176-0.174c-0.079-0.040-0.178-0.060-0.297-0.060h-0.542v2.725h-0.67v-3.25zM48.909 27.586l-0.741-1.449 0.708-0.004 0.75 1.422v0.031h-0.717zM51.713 26.736c0-0.058-0.009-0.11-0.027-0.156-0.016-0.048-0.048-0.091-0.094-0.129-0.046-0.040-0.111-0.080-0.194-0.118s-0.191-0.079-0.324-0.121c-0.147-0.048-0.287-0.101-0.42-0.161-0.131-0.059-0.247-0.129-0.348-0.208-0.1-0.080-0.178-0.173-0.237-0.279-0.057-0.106-0.085-0.228-0.085-0.368 0-0.135 0.030-0.258 0.089-0.368 0.059-0.112 0.143-0.207 0.25-0.286 0.107-0.080 0.234-0.142 0.379-0.185 0.147-0.043 0.309-0.065 0.484-0.065 0.24 0 0.449 0.043 0.627 0.129s0.317 0.205 0.415 0.355c0.1 0.15 0.15 0.322 0.15 0.516h-0.665c0-0.095-0.020-0.179-0.060-0.25-0.039-0.073-0.098-0.13-0.179-0.172-0.079-0.042-0.179-0.063-0.299-0.063-0.116 0-0.213 0.018-0.29 0.054-0.077 0.034-0.135 0.081-0.174 0.141-0.039 0.058-0.058 0.123-0.058 0.196 0 0.055 0.013 0.105 0.040 0.15 0.028 0.045 0.070 0.086 0.125 0.125s0.123 0.075 0.203 0.109c0.080 0.034 0.173 0.068 0.279 0.101 0.177 0.054 0.333 0.114 0.467 0.181 0.135 0.067 0.249 0.142 0.339 0.225s0.159 0.178 0.205 0.284c0.046 0.106 0.069 0.225 0.069 0.359 0 0.141-0.028 0.268-0.083 0.38s-0.135 0.206-0.239 0.284c-0.104 0.077-0.228 0.136-0.373 0.176s-0.306 0.060-0.484 0.060c-0.161 0-0.319-0.021-0.475-0.062-0.156-0.043-0.298-0.108-0.426-0.194-0.126-0.086-0.228-0.196-0.304-0.33s-0.114-0.292-0.114-0.475h0.672c0 0.101 0.016 0.187 0.047 0.257s0.075 0.126 0.132 0.17c0.058 0.043 0.127 0.074 0.205 0.094 0.080 0.019 0.168 0.029 0.263 0.029 0.116 0 0.211-0.016 0.286-0.049 0.076-0.033 0.132-0.078 0.167-0.136 0.037-0.058 0.056-0.123 0.056-0.196z"></path>
</svg>
